<svg id="Capa_1" enable-background="new 0 0 480 480" height="512" viewBox="0 0 480 480" width="512" xmlns="http://www.w3.org/2000/svg"><g><path d="m97.767 151.292-25.549-5.11 55.822-55.823 5.109 25.55 29.418-5.884-12.567-62.838-62.839-12.568-5.883 29.417 25.549 5.11-55.822 55.822-5.109-25.549-29.418 5.883 12.567 62.839 62.839 12.567z"/><path d="m418.522 165c-5.257 0-10.307.906-15 2.57v-2.57c0-31.081-30.875-52.756-60-42.43v-2.57c0-24.813-20.187-45-45-45-5.257 0-10.307.906-15 2.57v-32.57c0-24.813-20.187-45-45-45-24.814 0-45 20.187-45 45v198.569l-13.854-16.624c-23.715-28.458-68.07-26.1-88.627 4.734l-5.104 7.656c16.609 31.764 39.078 61.767 51.135 109.117 5.02 19.711 15.268 37.817 29.639 52.362 17.289 17.497 26.811 40.292 26.811 64.186v15h210v-15c0-23.894 9.522-46.689 26.81-64.186 21.403-21.662 33.19-50.362 33.19-80.814v-110c0-24.813-20.186-45-45-45zm15 155c0 22.507-8.712 43.719-24.53 59.728-19.248 19.48-31.219 44.012-34.529 70.272h-151.881c-3.312-26.259-15.282-50.792-34.529-70.272-10.626-10.755-18.201-24.131-21.907-38.681-12.617-49.544-35.84-82.517-44.251-98.983 10.349-7.786 25.75-6.687 34.728 4.086l32.372 38.845 34.528.007v-240.002c0-8.271 6.729-15 15-15s15 6.729 15 15v180h30v-105c0-8.271 6.729-15 15-15 8.272 0 15 6.729 15 15v105h30v-60c0-8.271 6.729-15 15-15 8.272 0 15 6.729 15 15v60h30v-15c0-8.271 6.729-15 15-15 8.272 0 15 6.729 15 15v110z"/></g></svg>