<?xml version="1.0"?>
<svg xmlns="http://www.w3.org/2000/svg" xmlns:xlink="http://www.w3.org/1999/xlink" xmlns:svgjs="http://svgjs.com/svgjs" version="1.1" width="512" height="512" x="0" y="0" viewBox="0 0 45.583 45.583" style="enable-background:new 0 0 512 512" xml:space="preserve" class=""><circle r="22.7915" cx="22.7915" cy="22.7915" fill="#525252" shape="circle" transform="matrix(0.63,0,0,0.63,8.432855033874512,8.432855033874512)"/><g transform="matrix(-9.184850993605151e-17,-0.5,-0.5,9.184850993605151e-17,34.1872501373291,34.187250137329094)">
<g xmlns="http://www.w3.org/2000/svg">
	<g>
		<path d="M22.793,12.196c-3.361,0-6.078-2.729-6.078-6.099C16.715,2.73,19.432,0,22.793,0c3.353,0,6.073,2.729,6.073,6.097    C28.866,9.466,26.145,12.196,22.793,12.196z" fill="#ffffff" data-original="#000000" style="" class=""/>
		<path d="M22.794,28.889c-3.361,0-6.079-2.729-6.079-6.099c0-3.366,2.717-6.099,6.078-6.099c3.353,0,6.073,2.732,6.075,6.099    C28.866,26.162,26.144,28.889,22.794,28.889z" fill="#ffffff" data-original="#000000" style="" class=""/>
		<path d="M22.794,45.583c-3.361,0-6.079-2.729-6.079-6.099s2.717-6.098,6.078-6.098c3.353-0.002,6.073,2.729,6.073,6.098    S26.144,45.583,22.794,45.583z" fill="#ffffff" data-original="#000000" style="" class=""/>
	</g>
</g>
<g xmlns="http://www.w3.org/2000/svg">
</g>
<g xmlns="http://www.w3.org/2000/svg">
</g>
<g xmlns="http://www.w3.org/2000/svg">
</g>
<g xmlns="http://www.w3.org/2000/svg">
</g>
<g xmlns="http://www.w3.org/2000/svg">
</g>
<g xmlns="http://www.w3.org/2000/svg">
</g>
<g xmlns="http://www.w3.org/2000/svg">
</g>
<g xmlns="http://www.w3.org/2000/svg">
</g>
<g xmlns="http://www.w3.org/2000/svg">
</g>
<g xmlns="http://www.w3.org/2000/svg">
</g>
<g xmlns="http://www.w3.org/2000/svg">
</g>
<g xmlns="http://www.w3.org/2000/svg">
</g>
<g xmlns="http://www.w3.org/2000/svg">
</g>
<g xmlns="http://www.w3.org/2000/svg">
</g>
<g xmlns="http://www.w3.org/2000/svg">
</g>
</g></svg>
